<svg xmlns="http://www.w3.org/2000/svg" viewBox="0 0 240 240" width="240" height="240" role="img" aria-label="Logo de Nexus Play">
  <rect width="240" height="240" rx="28" fill="#1b1035"/>
  <path d="M62 118h116a34 34 0 0 1 34 34v6a30 30 0 0 1-30 30h-8a26 26 0 0 1-21-11l-9-13H82l-9 13a26 26 0 0 1-21 11h-8a30 30 0 0 1-30-30v-6a34 34 0 0 1 34-34z" transform="translate(10 -6) scale(0.86)" fill="#6c4bf5"/>
  <circle cx="76" cy="150" r="8" fill="#f5f2ff"/>
  <circle cx="100" cy="150" r="8" fill="#f5f2ff"/>
  <circle cx="88" cy="138" r="8" fill="#f5f2ff"/>
  <circle cx="88" cy="162" r="8" fill="#f5f2ff"/>
  <circle cx="156" cy="142" r="9" fill="#28e0b0"/>
  <circle cx="178" cy="158" r="9" fill="#ff5c8a"/>
  <text x="120" y="82" font-family="Segoe UI, Arial, sans-serif" font-size="62" font-weight="700" fill="#f5f2ff" text-anchor="middle">NP</text>
</svg>
